<svg xmlns="http://www.w3.org/2000/svg" width="1070.5997314453125" height="671.6675415039062" viewBox="-480.27996826171875 -147.18072509765625 1070.5997314453125 671.6675415039062"><title>Neo4j Graph Visualization</title><desc>Created using Neo4j (http://www.neo4j.com/)</desc><g class="layer relationships"><g class="relationship" transform="translate(53.62452018422516 -118.18071970401616) rotate(381.5230920162802)"><path class="outline" fill="#DA7194" stroke="none" data-darkreader-inline-fill="" data-darkreader-inline-stroke="" style="--darkreader-inline-fill:#db7396; --darkreader-inline-stroke:none;" d="M 25 0.5 L 68.39294696784368 0.5 L 68.39294696784368 -0.5 L 25 -0.5 Z M 79.36169696784368 0.5 L 122.75464393568737 0.5 L 122.75464393568737 3.5 L 129.75464393568737 0 L 122.75464393568737 -3.5 L 122.75464393568737 -0.5 L 79.36169696784368 -0.5 Z"/><text text-anchor="middle" pointer-events="none" font-size="8px" fill="#000000" data-darkreader-inline-fill="" style="--darkreader-inline-fill:#e8e6e3;" x="73.87732196784368" y="3" font-family="sans-serif">4</text></g><g class="relationship" transform="translate(-315.176527044814 -7.544169325187582) rotate(383.4888579276982)"><path class="outline" fill="#DA7194" stroke="none" data-darkreader-inline-fill="" data-darkreader-inline-stroke="" style="--darkreader-inline-fill:#db7396; --darkreader-inline-stroke:none;" d="M 25 0.5 L 97.45419754909089 0.5 L 97.45419754909089 -0.5 L 25 -0.5 Z M 113.39169754909089 0.5 L 185.84589509818178 0.5 L 185.84589509818178 3.5 L 192.84589509818178 0 L 185.84589509818178 -3.5 L 185.84589509818178 -0.5 L 113.39169754909089 -0.5 Z"/><text text-anchor="middle" pointer-events="none" font-size="8px" fill="#000000" data-darkreader-inline-fill="" style="--darkreader-inline-fill:#e8e6e3;" x="105.42294754909089" y="3" font-family="sans-serif">11</text></g><g class="relationship" transform="translate(-315.176527044814 -7.544169325187582) rotate(369.1534040560252)"><path class="outline" fill="#DA7194" stroke="none" data-darkreader-inline-fill="" data-darkreader-inline-stroke="" style="--darkreader-inline-fill:#db7396; --darkreader-inline-stroke:none;" d="M 25 0.5 L 227.8081196685105 0.5 L 227.8081196685105 -0.5 L 25 -0.5 Z M 238.7768696685105 0.5 L 441.584989337021 0.5 L 441.584989337021 3.5 L 448.584989337021 0 L 441.584989337021 -3.5 L 441.584989337021 -0.5 L 238.7768696685105 -0.5 Z"/><text text-anchor="middle" pointer-events="none" font-size="8px" fill="#000000" data-darkreader-inline-fill="" style="--darkreader-inline-fill:#e8e6e3;" x="233.2924946685105" y="3" font-family="sans-serif">8</text></g><g class="relationship" transform="translate(-315.176527044814 -7.544169325187582) rotate(421.5416852476777)"><path class="outline" fill="#DA7194" stroke="none" data-darkreader-inline-fill="" data-darkreader-inline-stroke="" style="--darkreader-inline-fill:#db7396; --darkreader-inline-stroke:none;" d="M 25 0.5 L 203.6031239601498 0.5 L 203.6031239601498 -0.5 L 25 -0.5 Z M 214.5718739601498 0.5 L 393.1749979202996 0.5 L 393.1749979202996 3.5 L 400.1749979202996 0 L 393.1749979202996 -3.5 L 393.1749979202996 -0.5 L 214.5718739601498 -0.5 Z"/><text text-anchor="middle" pointer-events="none" font-size="8px" fill="#000000" data-darkreader-inline-fill="" style="--darkreader-inline-fill:#e8e6e3;" x="209.0874989601498" y="3" font-family="sans-serif">0</text></g><g class="relationship" transform="translate(20.52215045050334 106.31519276623928) rotate(503.04996413908236)"><path class="outline" fill="#DA7194" stroke="none" data-darkreader-inline-fill="" data-darkreader-inline-stroke="" style="--darkreader-inline-fill:#db7396; --darkreader-inline-stroke:none;" d="M 25 0.5 L 196.94370138650365 0.5 L 196.94370138650365 -0.5 L 25 -0.5 Z M 212.88120138650365 0.5 L 384.8249027730073 0.5 L 384.8249027730073 3.5 L 391.8249027730073 0 L 384.8249027730073 -3.5 L 384.8249027730073 -0.5 L 212.88120138650365 -0.5 Z"/><text text-anchor="middle" pointer-events="none" font-size="8px" fill="#000000" data-darkreader-inline-fill="" style="--darkreader-inline-fill:#e8e6e3;" x="204.91245138650365" y="3" transform="rotate(180 204.91245138650365 0)" font-family="sans-serif">22</text></g><g class="relationship" transform="translate(20.52215045050334 106.31519276623928) rotate(522.8450556779071)"><path class="outline" fill="#DA7194" stroke="none" data-darkreader-inline-fill="" data-darkreader-inline-stroke="" style="--darkreader-inline-fill:#db7396; --darkreader-inline-stroke:none;" d="M 24.018736134675446,6.953439040707552 L 24.277555179777966,5.987513214418485 A 242.4355015157005 242.4355015157005 0 0 0 76.67616214576603,14.02734381921826 L 76.63347731631424,15.026432406549048 A 243.4355015157005 243.4355015157005 0 0 1 24.018736134675446,6.953439040707552 Z M 92.60013364283739,15.184441769826776 L 92.57722961517052,14.184704101477394 A 242.4355015157005 242.4355015157005 0 0 0 145.12468637718914,7.183441645765748 L 144.4057297165566,4.2708652398783205 L 152.0405241010319,5.991305505271082 L 146.08329525803254,11.06687685361565 L 145.3643385974,8.154300447728223 A 243.4355015157005 243.4355015157005 0 0 1 92.60013364283739,15.184441769826776"/><text text-anchor="middle" pointer-events="none" font-size="8px" fill="#000000" data-darkreader-inline-fill="" style="--darkreader-inline-fill:#e8e6e3;" x="84.62045747297444" y="17.736407542768404" transform="rotate(180 84.62045747297444 14.736407542768404)" font-family="sans-serif">20</text></g><g class="relationship" transform="translate(20.52215045050334 106.31519276623928) rotate(522.8450556779071)"><path class="outline" fill="#DA7194" stroke="none" data-darkreader-inline-fill="" data-darkreader-inline-stroke="" style="--darkreader-inline-fill:#db7396; --darkreader-inline-stroke:none;" d="M 24.018736134675446,-6.953439040707552 L 24.277555179777966,-5.987513214418485 A 242.4355015157005 242.4355015157005 0 0 1 76.67616214576611,-14.027343819218288 L 76.63347731631433,-15.026432406549077 A 243.4355015157005 243.4355015157005 0 0 0 24.018736134675446,-6.953439040707552 Z M 92.60013364283738,-15.184441769826776 L 92.5772296151705,-14.184704101477394 A 242.4355015157005 242.4355015157005 0 0 1 145.12468637718914,-7.183441645765748 L 144.4057297165566,-4.2708652398783205 L 152.0405241010319,-5.991305505271082 L 146.08329525803254,-11.06687685361565 L 145.3643385974,-8.154300447728223 A 243.4355015157005 243.4355015157005 0 0 0 92.60013364283738,-15.184441769826776"/><text text-anchor="middle" pointer-events="none" font-size="8px" fill="#000000" data-darkreader-inline-fill="" style="--darkreader-inline-fill:#e8e6e3;" x="84.62045747297446" y="-11.736407542768404" transform="rotate(180 84.62045747297446 -14.736407542768404)" font-family="sans-serif">19</text></g><g class="relationship" transform="translate(20.52215045050334 106.31519276623928) rotate(417.12458590973205)"><path class="outline" fill="#DA7194" stroke="none" data-darkreader-inline-fill="" data-darkreader-inline-stroke="" style="--darkreader-inline-fill:#db7396; --darkreader-inline-stroke:none;" d="M 25 0.5 L 101.26848388538518 0.5 L 101.26848388538518 -0.5 L 25 -0.5 Z M 117.20598388538518 0.5 L 193.47446777077036 0.5 L 193.47446777077036 3.5 L 200.47446777077036 0 L 193.47446777077036 -3.5 L 193.47446777077036 -0.5 L 117.20598388538518 -0.5 Z"/><text text-anchor="middle" pointer-events="none" font-size="8px" fill="#000000" data-darkreader-inline-fill="" style="--darkreader-inline-fill:#e8e6e3;" x="109.23723388538518" y="3" font-family="sans-serif">14</text></g><g class="relationship" transform="translate(20.52215045050334 106.31519276623928) rotate(191.2497470518016)"><path class="outline" fill="#DA7194" stroke="none" data-darkreader-inline-fill="" data-darkreader-inline-stroke="" style="--darkreader-inline-fill:#db7396; --darkreader-inline-stroke:none;" d="M 25 0.5 L 57.81445573381737 0.5 L 57.81445573381737 -0.5 L 25 -0.5 Z M 73.75195573381737 0.5 L 106.56641146763474 0.5 L 106.56641146763474 3.5 L 113.56641146763474 0 L 106.56641146763474 -3.5 L 106.56641146763474 -0.5 L 73.75195573381737 -0.5 Z"/><text text-anchor="middle" pointer-events="none" font-size="8px" fill="#000000" data-darkreader-inline-fill="" style="--darkreader-inline-fill:#e8e6e3;" x="65.78320573381737" y="3" transform="rotate(180 65.78320573381737 0)" font-family="sans-serif">12</text></g><g class="relationship" transform="translate(20.52215045050334 106.31519276623928) rotate(343.7140307600346)"><path class="outline" fill="#DA7194" stroke="none" data-darkreader-inline-fill="" data-darkreader-inline-stroke="" style="--darkreader-inline-fill:#db7396; --darkreader-inline-stroke:none;" d="M 25 0.5 L 59.699464575440274 0.5 L 59.699464575440274 -0.5 L 25 -0.5 Z M 70.66821457544027 0.5 L 105.36767915088055 0.5 L 105.36767915088055 3.5 L 112.36767915088055 0 L 105.36767915088055 -3.5 L 105.36767915088055 -0.5 L 70.66821457544027 -0.5 Z"/><text text-anchor="middle" pointer-events="none" font-size="8px" fill="#000000" data-darkreader-inline-fill="" style="--darkreader-inline-fill:#e8e6e3;" x="65.18383957544027" y="3" font-family="sans-serif">9</text></g><g class="relationship" transform="translate(20.52215045050334 106.31519276623928) rotate(445.9115967497373)"><path class="outline" fill="#DA7194" stroke="none" data-darkreader-inline-fill="" data-darkreader-inline-stroke="" style="--darkreader-inline-fill:#db7396; --darkreader-inline-stroke:none;" d="M 25 0.5 L 66.4453763783904 0.5 L 66.4453763783904 -0.5 L 25 -0.5 Z M 77.4141263783904 0.5 L 118.85950275678081 0.5 L 118.85950275678081 3.5 L 125.85950275678081 0 L 118.85950275678081 -3.5 L 118.85950275678081 -0.5 L 77.4141263783904 -0.5 Z"/><text text-anchor="middle" pointer-events="none" font-size="8px" fill="#000000" data-darkreader-inline-fill="" style="--darkreader-inline-fill:#e8e6e3;" x="71.9297513783904" y="3" font-family="sans-serif">7</text></g><g class="relationship" transform="translate(20.52215045050334 106.31519276623928) rotate(477.11344736374383)"><path class="outline" fill="#DA7194" stroke="none" data-darkreader-inline-fill="" data-darkreader-inline-stroke="" style="--darkreader-inline-fill:#db7396; --darkreader-inline-stroke:none;" d="M 25 0.5 L 137.03151767105965 0.5 L 137.03151767105965 -0.5 L 25 -0.5 Z M 148.00026767105965 0.5 L 260.0317853421193 0.5 L 260.0317853421193 3.5 L 267.0317853421193 0 L 260.0317853421193 -3.5 L 260.0317853421193 -0.5 L 148.00026767105965 -0.5 Z"/><text text-anchor="middle" pointer-events="none" font-size="8px" fill="#000000" data-darkreader-inline-fill="" style="--darkreader-inline-fill:#e8e6e3;" x="142.51589267105965" y="3" transform="rotate(180 142.51589267105965 0)" font-family="sans-serif">1</text></g><g class="relationship" transform="translate(-90.81638258062696 495.486813393524) rotate(337.64386078622726)"><path class="outline" fill="#DA7194" stroke="none" data-darkreader-inline-fill="" data-darkreader-inline-stroke="" style="--darkreader-inline-fill:#db7396; --darkreader-inline-stroke:none;" d="M 25 0.5 L 82.61371065000385 0.5 L 82.61371065000385 -0.5 L 25 -0.5 Z M 93.58246065000385 0.5 L 151.1961713000077 0.5 L 151.1961713000077 3.5 L 158.1961713000077 0 L 151.1961713000077 -3.5 L 151.1961713000077 -0.5 L 93.58246065000385 -0.5 Z"/><text text-anchor="middle" pointer-events="none" font-size="8px" fill="#000000" data-darkreader-inline-fill="" style="--darkreader-inline-fill:#e8e6e3;" x="88.09808565000385" y="3" font-family="sans-serif">5</text></g><g class="relationship" transform="translate(-112.57245370979297 366.25439718434865) rotate(182.68445920477097)"><path class="outline" fill="#DA7194" stroke="none" data-darkreader-inline-fill="" data-darkreader-inline-stroke="" style="--darkreader-inline-fill:#db7396; --darkreader-inline-stroke:none;" d="M 25 0.5 L 88.64871251335113 0.5 L 88.64871251335113 -0.5 L 25 -0.5 Z M 104.58621251335113 0.5 L 168.23492502670226 0.5 L 168.23492502670226 3.5 L 175.23492502670226 0 L 168.23492502670226 -3.5 L 168.23492502670226 -0.5 L 104.58621251335113 -0.5 Z"/><text text-anchor="middle" pointer-events="none" font-size="8px" fill="#000000" data-darkreader-inline-fill="" style="--darkreader-inline-fill:#e8e6e3;" x="96.61746251335113" y="3" transform="rotate(180 96.61746251335113 0)" font-family="sans-serif">21</text></g><g class="relationship" transform="translate(-112.57245370979297 366.25439718434865) rotate(260.3454039136092)"><path class="outline" fill="#DA7194" stroke="none" data-darkreader-inline-fill="" data-darkreader-inline-stroke="" style="--darkreader-inline-fill:#db7396; --darkreader-inline-stroke:none;" d="M 25 0.5 L 93.99232433392825 0.5 L 93.99232433392825 -0.5 L 25 -0.5 Z M 109.92982433392825 0.5 L 178.9221486678565 0.5 L 178.9221486678565 3.5 L 185.9221486678565 0 L 178.9221486678565 -3.5 L 178.9221486678565 -0.5 L 109.92982433392825 -0.5 Z"/><text text-anchor="middle" pointer-events="none" font-size="8px" fill="#000000" data-darkreader-inline-fill="" style="--darkreader-inline-fill:#e8e6e3;" x="101.96107433392825" y="3" transform="rotate(180 101.96107433392825 0)" font-family="sans-serif">18</text></g><g class="relationship" transform="translate(-112.57245370979297 366.25439718434865) rotate(344.55801825369383)"><path class="outline" fill="#DA7194" stroke="none" data-darkreader-inline-fill="" data-darkreader-inline-stroke="" style="--darkreader-inline-fill:#db7396; --darkreader-inline-stroke:none;" d="M 25 0.5 L 121.05805643386125 0.5 L 121.05805643386125 -0.5 L 25 -0.5 Z M 136.99555643386125 0.5 L 233.0536128677225 0.5 L 233.0536128677225 3.5 L 240.0536128677225 0 L 233.0536128677225 -3.5 L 233.0536128677225 -0.5 L 136.99555643386125 -0.5 Z"/><text text-anchor="middle" pointer-events="none" font-size="8px" fill="#000000" data-darkreader-inline-fill="" style="--darkreader-inline-fill:#e8e6e3;" x="129.02680643386125" y="3" font-family="sans-serif">13</text></g><g class="relationship" transform="translate(-112.57245370979297 366.25439718434865) rotate(322.73048230936524)"><path class="outline" fill="#DA7194" stroke="none" data-darkreader-inline-fill="" data-darkreader-inline-stroke="" style="--darkreader-inline-fill:#db7396; --darkreader-inline-stroke:none;" d="M 25 0.5 L 81.39699122004637 0.5 L 81.39699122004637 -0.5 L 25 -0.5 Z M 92.36574122004637 0.5 L 148.76273244009275 0.5 L 148.76273244009275 3.5 L 155.76273244009275 0 L 148.76273244009275 -3.5 L 148.76273244009275 -0.5 L 92.36574122004637 -0.5 Z"/><text text-anchor="middle" pointer-events="none" font-size="8px" fill="#000000" data-darkreader-inline-fill="" style="--darkreader-inline-fill:#e8e6e3;" x="86.88136622004637" y="3" font-family="sans-serif">6</text></g><g class="relationship" transform="translate(-451.2799830327988 366.9602850822961) rotate(355.8414764635513)"><path class="outline" fill="#DA7194" stroke="none" data-darkreader-inline-fill="" data-darkreader-inline-stroke="" style="--darkreader-inline-fill:#db7396; --darkreader-inline-stroke:none;" d="M 25 0.5 L 58.06047376066286 0.5 L 58.06047376066286 -0.5 L 25 -0.5 Z M 73.99797376066286 0.5 L 107.05844752132572 0.5 L 107.05844752132572 3.5 L 114.05844752132572 0 L 107.05844752132572 -3.5 L 107.05844752132572 -0.5 L 73.99797376066286 -0.5 Z"/><text text-anchor="middle" pointer-events="none" font-size="8px" fill="#000000" data-darkreader-inline-fill="" style="--darkreader-inline-fill:#e8e6e3;" x="66.02922376066286" y="3" font-family="sans-serif">23</text></g><g class="relationship" transform="translate(197.5880888763806 -61.404926366710654) rotate(411.3504741363223)"><path class="outline" fill="#DA7194" stroke="none" data-darkreader-inline-fill="" data-darkreader-inline-stroke="" style="--darkreader-inline-fill:#db7396; --darkreader-inline-stroke:none;" d="M 25 0.5 L 55.99895524537436 0.5 L 55.99895524537436 -0.5 L 25 -0.5 Z M 71.93645524537436 0.5 L 102.93541049074872 0.5 L 102.93541049074872 3.5 L 109.93541049074872 0 L 102.93541049074872 -3.5 L 102.93541049074872 -0.5 L 71.93645524537436 -0.5 Z"/><text text-anchor="middle" pointer-events="none" font-size="8px" fill="#000000" data-darkreader-inline-fill="" style="--darkreader-inline-fill:#e8e6e3;" x="63.96770524537436" y="3" font-family="sans-serif">24</text></g><g class="relationship" transform="translate(197.5880888763806 -61.404926366710654) rotate(469.2864984240979)"><path class="outline" fill="#DA7194" stroke="none" data-darkreader-inline-fill="" data-darkreader-inline-stroke="" style="--darkreader-inline-fill:#db7396; --darkreader-inline-stroke:none;" d="M 25 0.5 L 56.97111292640194 0.5 L 56.97111292640194 -0.5 L 25 -0.5 Z M 72.90861292640194 0.5 L 104.87972585280389 0.5 L 104.87972585280389 3.5 L 111.87972585280389 0 L 104.87972585280389 -3.5 L 104.87972585280389 -0.5 L 72.90861292640194 -0.5 Z"/><text text-anchor="middle" pointer-events="none" font-size="8px" fill="#000000" data-darkreader-inline-fill="" style="--darkreader-inline-fill:#e8e6e3;" x="64.93986292640194" y="3" transform="rotate(180 64.93986292640194 0)" font-family="sans-serif">10</text></g><g class="relationship" transform="translate(78.6103024316992 425.8058577118187) rotate(296.29669088215127)"><path class="outline" fill="#DA7194" stroke="none" data-darkreader-inline-fill="" data-darkreader-inline-stroke="" style="--darkreader-inline-fill:#db7396; --darkreader-inline-stroke:none;" d="M 25 0.5 L 61.10433561776031 0.5 L 61.10433561776031 -0.5 L 25 -0.5 Z M 77.04183561776031 0.5 L 113.14617123552063 0.5 L 113.14617123552063 3.5 L 120.14617123552063 0 L 113.14617123552063 -3.5 L 113.14617123552063 -0.5 L 77.04183561776031 -0.5 Z"/><text text-anchor="middle" pointer-events="none" font-size="8px" fill="#000000" data-darkreader-inline-fill="" style="--darkreader-inline-fill:#e8e6e3;" x="69.07308561776031" y="3" font-family="sans-serif">17</text></g><g class="relationship" transform="translate(31.27776308935941 256.79079334249894) rotate(379.2065538718953)"><path class="outline" fill="#DA7194" stroke="none" data-darkreader-inline-fill="" data-darkreader-inline-stroke="" style="--darkreader-inline-fill:#db7396; --darkreader-inline-stroke:none;" d="M 25 0.5 L 47.63880619021987 0.5 L 47.63880619021987 -0.5 L 25 -0.5 Z M 63.57630619021987 0.5 L 86.21511238043973 0.5 L 86.21511238043973 3.5 L 93.21511238043973 0 L 86.21511238043973 -3.5 L 86.21511238043973 -0.5 L 63.57630619021987 -0.5 Z"/><text text-anchor="middle" pointer-events="none" font-size="8px" fill="#000000" data-darkreader-inline-fill="" style="--darkreader-inline-fill:#e8e6e3;" x="55.60755619021987" y="3" font-family="sans-serif">15</text></g><g class="relationship" transform="translate(152.37781324099632 67.79294639639382) rotate(349.5781797520136)"><path class="outline" fill="#DA7194" stroke="none" data-darkreader-inline-fill="" data-darkreader-inline-stroke="" style="--darkreader-inline-fill:#db7396; --darkreader-inline-stroke:none;" d="M 25 0.5 L 54.359668184694684 0.5 L 54.359668184694684 -0.5 L 25 -0.5 Z M 70.29716818469468 0.5 L 99.65683636938937 0.5 L 99.65683636938937 3.5 L 106.65683636938937 0 L 99.65683636938937 -3.5 L 99.65683636938937 -0.5 L 70.29716818469468 -0.5 Z"/><text text-anchor="middle" pointer-events="none" font-size="8px" fill="#000000" data-darkreader-inline-fill="" style="--darkreader-inline-fill:#e8e6e3;" x="62.328418184694684" y="3" font-family="sans-serif">25</text></g><g class="relationship" transform="translate(152.37781324099632 67.79294639639382) rotate(452.37831941968494)"><path class="outline" fill="#DA7194" stroke="none" data-darkreader-inline-fill="" data-darkreader-inline-stroke="" style="--darkreader-inline-fill:#db7396; --darkreader-inline-stroke:none;" d="M 25 0.5 L 102.57329752363799 0.5 L 102.57329752363799 -0.5 L 25 -0.5 Z M 118.51079752363799 0.5 L 196.08409504727598 0.5 L 196.08409504727598 3.5 L 203.08409504727598 0 L 196.08409504727598 -3.5 L 196.08409504727598 -0.5 L 118.51079752363799 -0.5 Z"/><text text-anchor="middle" pointer-events="none" font-size="8px" fill="#000000" data-darkreader-inline-fill="" style="--darkreader-inline-fill:#e8e6e3;" x="110.54204752363799" y="3" transform="rotate(180 110.54204752363799 0)" font-family="sans-serif">16</text></g><g class="relationship" transform="translate(310.4570858841337 168.63678467132615) rotate(327.0153998789408)"><path class="outline" fill="#DA7194" stroke="none" data-darkreader-inline-fill="" data-darkreader-inline-stroke="" style="--darkreader-inline-fill:#db7396; --darkreader-inline-stroke:none;" d="M 25 0.5 L 42.12020851955166 0.5 L 42.12020851955166 -0.5 L 25 -0.5 Z M 53.08895851955166 0.5 L 70.20916703910332 0.5 L 70.20916703910332 3.5 L 77.20916703910332 0 L 70.20916703910332 -3.5 L 70.20916703910332 -0.5 L 53.08895851955166 -0.5 Z"/><text text-anchor="middle" pointer-events="none" font-size="8px" fill="#000000" data-darkreader-inline-fill="" style="--darkreader-inline-fill:#e8e6e3;" x="47.60458351955166" y="3" font-family="sans-serif">3</text></g><g class="relationship" transform="translate(310.4570858841337 168.63678467132615) rotate(437.4347390572641)"><path class="outline" fill="#DA7194" stroke="none" data-darkreader-inline-fill="" data-darkreader-inline-stroke="" style="--darkreader-inline-fill:#db7396; --darkreader-inline-stroke:none;" d="M 25 0.5 L 44.07152765014381 0.5 L 44.07152765014381 -0.5 L 25 -0.5 Z M 55.04027765014381 0.5 L 74.11180530028761 0.5 L 74.11180530028761 3.5 L 81.11180530028761 0 L 74.11180530028761 -3.5 L 74.11180530028761 -0.5 L 55.04027765014381 -0.5 Z"/><text text-anchor="middle" pointer-events="none" font-size="8px" fill="#000000" data-darkreader-inline-fill="" style="--darkreader-inline-fill:#e8e6e3;" x="49.55590265014381" y="3" font-family="sans-serif">2</text></g></g><g class="layer nodes"><g class="node" transform="translate(53.62452018422516,-118.18071970401616)"><circle class="outline" cx="0" cy="0" r="25" fill="#F16667" stroke="#eb2728" stroke-width="2px" data-darkreader-inline-fill="" data-darkreader-inline-stroke="" style="--darkreader-inline-fill:#8b0d0e; --darkreader-inline-stroke:#ed393a;"/><text text-anchor="middle" pointer-events="none" font-family="sans-serif" dy="1.5625" font-size="25" fill="#FFFFFF" data-darkreader-inline-fill="" style="--darkreader-inline-fill:#e8e6e3;"/><text text-anchor="middle" pointer-events="none" x="0" y="5" font-size="10px" fill="#FFFFFF" data-darkreader-inline-fill="" style="--darkreader-inline-fill:#e8e6e3;" font-family="sans-serif"> GT</text></g><g class="node" transform="translate(-315.176527044814,-7.544169325187582)"><circle class="outline" cx="0" cy="0" r="25" fill="#F16667" stroke="#eb2728" stroke-width="2px" data-darkreader-inline-fill="" data-darkreader-inline-stroke="" style="--darkreader-inline-fill:#8b0d0e; --darkreader-inline-stroke:#ed393a;"/><text text-anchor="middle" pointer-events="none" font-family="sans-serif" dy="1.5625" font-size="25" fill="#FFFFFF" data-darkreader-inline-fill="" style="--darkreader-inline-fill:#e8e6e3;"/><text text-anchor="middle" pointer-events="none" x="0" y="5" font-size="10px" fill="#FFFFFF" data-darkreader-inline-fill="" style="--darkreader-inline-fill:#e8e6e3;" font-family="sans-serif"> PM1</text></g><g class="node" transform="translate(20.52215045050334,106.31519276623928)"><circle class="outline" cx="0" cy="0" r="25" fill="#F16667" stroke="#eb2728" stroke-width="2px" data-darkreader-inline-fill="" data-darkreader-inline-stroke="" style="--darkreader-inline-fill:#8b0d0e; --darkreader-inline-stroke:#ed393a;"/><text text-anchor="middle" pointer-events="none" font-family="sans-serif" dy="1.5625" font-size="25" fill="#FFFFFF" data-darkreader-inline-fill="" style="--darkreader-inline-fill:#e8e6e3;"/><text text-anchor="middle" pointer-events="none" x="0" y="5" font-size="10px" fill="#FFFFFF" data-darkreader-inline-fill="" style="--darkreader-inline-fill:#e8e6e3;" font-family="sans-serif"> PT</text></g><g class="node" transform="translate(-90.81638258062696,495.486813393524)"><circle class="outline" cx="0" cy="0" r="25" fill="#F16667" stroke="#eb2728" stroke-width="2px" data-darkreader-inline-fill="" data-darkreader-inline-stroke="" style="--darkreader-inline-fill:#8b0d0e; --darkreader-inline-stroke:#ed393a;"/><text text-anchor="middle" pointer-events="none" font-family="sans-serif" dy="1.5625" font-size="25" fill="#FFFFFF" data-darkreader-inline-fill="" style="--darkreader-inline-fill:#e8e6e3;"/><text text-anchor="middle" pointer-events="none" x="0" y="5" font-size="10px" fill="#FFFFFF" data-darkreader-inline-fill="" style="--darkreader-inline-fill:#e8e6e3;" font-family="sans-serif"> MS</text></g><g class="node" transform="translate(-112.57245370979297,366.25439718434865)"><circle class="outline" cx="0" cy="0" r="25" fill="#F16667" stroke="#eb2728" stroke-width="2px" data-darkreader-inline-fill="" data-darkreader-inline-stroke="" style="--darkreader-inline-fill:#8b0d0e; --darkreader-inline-stroke:#ed393a;"/><text text-anchor="middle" pointer-events="none" font-family="sans-serif" dy="1.5625" font-size="25" fill="#FFFFFF" data-darkreader-inline-fill="" style="--darkreader-inline-fill:#e8e6e3;"/><text text-anchor="middle" pointer-events="none" x="0" y="5" font-size="10px" fill="#FFFFFF" data-darkreader-inline-fill="" style="--darkreader-inline-fill:#e8e6e3;" font-family="sans-serif"> PM2</text></g><g class="node" transform="translate(333.5418674819739,272.2070896948519)"><circle class="outline" cx="0" cy="0" r="25" fill="#F16667" stroke="#eb2728" stroke-width="2px" data-darkreader-inline-fill="" data-darkreader-inline-stroke="" style="--darkreader-inline-fill:#8b0d0e; --darkreader-inline-stroke:#ed393a;"/><text text-anchor="middle" pointer-events="none" font-family="sans-serif" dy="1.5625" font-size="25" fill="#FFFFFF" data-darkreader-inline-fill="" style="--darkreader-inline-fill:#e8e6e3;"/><text text-anchor="middle" pointer-events="none" x="0" y="5" font-size="10px" fill="#FFFFFF" data-darkreader-inline-fill="" style="--darkreader-inline-fill:#e8e6e3;" font-family="sans-serif"> AA</text></g><g class="node" transform="translate(-451.2799830327988,366.9602850822961)"><circle class="outline" cx="0" cy="0" r="25" fill="#F16667" stroke="#eb2728" stroke-width="2px" data-darkreader-inline-fill="" data-darkreader-inline-stroke="" style="--darkreader-inline-fill:#8b0d0e; --darkreader-inline-stroke:#ed393a;"/><text text-anchor="middle" pointer-events="none" font-family="sans-serif" dy="1.5625" font-size="25" fill="#FFFFFF" data-darkreader-inline-fill="" style="--darkreader-inline-fill:#e8e6e3;"/><text text-anchor="middle" pointer-events="none" x="0" y="5" font-size="10px" fill="#FFFFFF" data-darkreader-inline-fill="" style="--darkreader-inline-fill:#e8e6e3;" font-family="sans-serif"> DB</text></g><g class="node" transform="translate(396.1918650829049,112.99272422849657)"><circle class="outline" cx="0" cy="0" r="25" fill="#F16667" stroke="#eb2728" stroke-width="2px" data-darkreader-inline-fill="" data-darkreader-inline-stroke="" style="--darkreader-inline-fill:#8b0d0e; --darkreader-inline-stroke:#ed393a;"/><text text-anchor="middle" pointer-events="none" font-family="sans-serif" dy="1.5625" font-size="25" fill="#FFFFFF" data-darkreader-inline-fill="" style="--darkreader-inline-fill:#e8e6e3;"/><text text-anchor="middle" pointer-events="none" x="0" y="5" font-size="10px" fill="#FFFFFF" data-darkreader-inline-fill="" style="--darkreader-inline-fill:#e8e6e3;" font-family="sans-serif"> AF</text></g><g class="node" transform="translate(197.5880888763806,-61.404926366710654)"><circle class="outline" cx="0" cy="0" r="25" fill="#F16667" stroke="#eb2728" stroke-width="2px" data-darkreader-inline-fill="" data-darkreader-inline-stroke="" style="--darkreader-inline-fill:#8b0d0e; --darkreader-inline-stroke:#ed393a;"/><text text-anchor="middle" pointer-events="none" font-family="sans-serif" dy="1.5625" font-size="25" fill="#FFFFFF" data-darkreader-inline-fill="" style="--darkreader-inline-fill:#e8e6e3;"/><text text-anchor="middle" pointer-events="none" x="0" y="5" font-size="10px" fill="#FFFFFF" data-darkreader-inline-fill="" style="--darkreader-inline-fill:#e8e6e3;" font-family="sans-serif"> GS</text></g><g class="node" transform="translate(78.6103024316992,425.8058577118187)"><circle class="outline" cx="0" cy="0" r="25" fill="#F16667" stroke="#eb2728" stroke-width="2px" data-darkreader-inline-fill="" data-darkreader-inline-stroke="" style="--darkreader-inline-fill:#8b0d0e; --darkreader-inline-stroke:#ed393a;"/><text text-anchor="middle" pointer-events="none" font-family="sans-serif" dy="1.5625" font-size="25" fill="#FFFFFF" data-darkreader-inline-fill="" style="--darkreader-inline-fill:#e8e6e3;"/><text text-anchor="middle" pointer-events="none" x="0" y="5" font-size="10px" fill="#FFFFFF" data-darkreader-inline-fill="" style="--darkreader-inline-fill:#e8e6e3;" font-family="sans-serif"> IS</text></g><g class="node" transform="translate(31.27776308935941,256.79079334249894)"><circle class="outline" cx="0" cy="0" r="25" fill="#F16667" stroke="#eb2728" stroke-width="2px" data-darkreader-inline-fill="" data-darkreader-inline-stroke="" style="--darkreader-inline-fill:#8b0d0e; --darkreader-inline-stroke:#ed393a;"/><text text-anchor="middle" pointer-events="none" font-family="sans-serif" dy="1.5625" font-size="25" fill="#FFFFFF" data-darkreader-inline-fill="" style="--darkreader-inline-fill:#e8e6e3;"/><text text-anchor="middle" pointer-events="none" x="0" y="5" font-size="10px" fill="#FFFFFF" data-darkreader-inline-fill="" style="--darkreader-inline-fill:#e8e6e3;" font-family="sans-serif"> SE1</text></g><g class="node" transform="translate(152.37781324099632,67.79294639639382)"><circle class="outline" cx="0" cy="0" r="25" fill="#F16667" stroke="#eb2728" stroke-width="2px" data-darkreader-inline-fill="" data-darkreader-inline-stroke="" style="--darkreader-inline-fill:#8b0d0e; --darkreader-inline-stroke:#ed393a;"/><text text-anchor="middle" pointer-events="none" font-family="sans-serif" dy="1.5625" font-size="25" fill="#FFFFFF" data-darkreader-inline-fill="" style="--darkreader-inline-fill:#e8e6e3;"/><text text-anchor="middle" pointer-events="none" x="0" y="5" font-size="10px" fill="#FFFFFF" data-darkreader-inline-fill="" style="--darkreader-inline-fill:#e8e6e3;" font-family="sans-serif"> BS</text></g><g class="node" transform="translate(-115.38186561849295,79.28282691831814)"><circle class="outline" cx="0" cy="0" r="25" fill="#F16667" stroke="#eb2728" stroke-width="2px" data-darkreader-inline-fill="" data-darkreader-inline-stroke="" style="--darkreader-inline-fill:#8b0d0e; --darkreader-inline-stroke:#ed393a;"/><text text-anchor="middle" pointer-events="none" font-family="sans-serif" dy="1.5625" font-size="25" fill="#FFFFFF" data-darkreader-inline-fill="" style="--darkreader-inline-fill:#e8e6e3;"/><text text-anchor="middle" pointer-events="none" x="0" y="5" font-size="10px" fill="#FFFFFF" data-darkreader-inline-fill="" style="--darkreader-inline-fill:#e8e6e3;" font-family="sans-serif"> AD</text></g><g class="node" transform="translate(142.91287408565947,295.6805707648983)"><circle class="outline" cx="0" cy="0" r="25" fill="#F16667" stroke="#eb2728" stroke-width="2px" data-darkreader-inline-fill="" data-darkreader-inline-stroke="" style="--darkreader-inline-fill:#8b0d0e; --darkreader-inline-stroke:#ed393a;"/><text text-anchor="middle" pointer-events="none" font-family="sans-serif" dy="1.5625" font-size="25" fill="#FFFFFF" data-darkreader-inline-fill="" style="--darkreader-inline-fill:#e8e6e3;"/><text text-anchor="middle" pointer-events="none" x="0" y="5" font-size="10px" fill="#FFFFFF" data-darkreader-inline-fill="" style="--darkreader-inline-fill:#e8e6e3;" font-family="sans-serif"> ESE</text></g><g class="node" transform="translate(561.3197335526228,188.4151316305133)"><circle class="outline" cx="0" cy="0" r="25" fill="#F16667" stroke="#eb2728" stroke-width="2px" data-darkreader-inline-fill="" data-darkreader-inline-stroke="" style="--darkreader-inline-fill:#8b0d0e; --darkreader-inline-stroke:#ed393a;"/><text text-anchor="middle" pointer-events="none" font-family="sans-serif" dy="1.5625" font-size="25" fill="#FFFFFF" data-darkreader-inline-fill="" style="--darkreader-inline-fill:#e8e6e3;"/><text text-anchor="middle" pointer-events="none" x="0" y="5" font-size="10px" fill="#FFFFFF" data-darkreader-inline-fill="" style="--darkreader-inline-fill:#e8e6e3;" font-family="sans-serif"> BWL</text></g><g class="node" transform="translate(-147.94582933506638,158.31960669574698)"><circle class="outline" cx="0" cy="0" r="25" fill="#F16667" stroke="#eb2728" stroke-width="2px" data-darkreader-inline-fill="" data-darkreader-inline-stroke="" style="--darkreader-inline-fill:#8b0d0e; --darkreader-inline-stroke:#ed393a;"/><text text-anchor="middle" pointer-events="none" font-family="sans-serif" dy="1.5625" font-size="25" fill="#FFFFFF" data-darkreader-inline-fill="" style="--darkreader-inline-fill:#e8e6e3;"/><text text-anchor="middle" pointer-events="none" x="0" y="5" font-size="10px" fill="#FFFFFF" data-darkreader-inline-fill="" style="--darkreader-inline-fill:#e8e6e3;" font-family="sans-serif"> WPCG</text></g><g class="node" transform="translate(-312.58764398920323,356.8762919417966)"><circle class="outline" cx="0" cy="0" r="25" fill="#F16667" stroke="#eb2728" stroke-width="2px" data-darkreader-inline-fill="" data-darkreader-inline-stroke="" style="--darkreader-inline-fill:#8b0d0e; --darkreader-inline-stroke:#ed393a;"/><text text-anchor="middle" pointer-events="none" font-family="sans-serif" dy="1.5625" font-size="25" fill="#FFFFFF" data-darkreader-inline-fill="" style="--darkreader-inline-fill:#e8e6e3;"/><text text-anchor="middle" pointer-events="none" x="0" y="5" font-size="10px" fill="#FFFFFF" data-darkreader-inline-fill="" style="--darkreader-inline-fill:#e8e6e3;" font-family="sans-serif"> WPNOS…</text></g><g class="node" transform="translate(281.8626608916977,43.97705271862438)"><circle class="outline" cx="0" cy="0" r="25" fill="#F16667" stroke="#eb2728" stroke-width="2px" data-darkreader-inline-fill="" data-darkreader-inline-stroke="" style="--darkreader-inline-fill:#8b0d0e; --darkreader-inline-stroke:#ed393a;"/><text text-anchor="middle" pointer-events="none" font-family="sans-serif" dy="1.5625" font-size="25" fill="#FFFFFF" data-darkreader-inline-fill="" style="--darkreader-inline-fill:#e8e6e3;"/><text text-anchor="middle" pointer-events="none" x="0" y="5" font-size="10px" fill="#FFFFFF" data-darkreader-inline-fill="" style="--darkreader-inline-fill:#e8e6e3;" font-family="sans-serif"> RN</text></g><g class="node" transform="translate(310.4570858841337,168.63678467132615)"><circle class="outline" cx="0" cy="0" r="25" fill="#F16667" stroke="#eb2728" stroke-width="2px" data-darkreader-inline-fill="" data-darkreader-inline-stroke="" style="--darkreader-inline-fill:#8b0d0e; --darkreader-inline-stroke:#ed393a;"/><text text-anchor="middle" pointer-events="none" font-family="sans-serif" dy="1.5625" font-size="25" fill="#FFFFFF" data-darkreader-inline-fill="" style="--darkreader-inline-fill:#e8e6e3;"/><text text-anchor="middle" pointer-events="none" x="0" y="5" font-size="10px" fill="#FFFFFF" data-darkreader-inline-fill="" style="--darkreader-inline-fill:#e8e6e3;" font-family="sans-serif"> DM</text></g></g></svg>